<svg width="100%" height="100%" viewBox="0 0 200 200" xmlns="http://www.w3.org/2000/svg">
  <defs>
    <g id="anim1">
      <animateTransform attributeName="transform" type="translate" values="100,-50; 140,-80; 80,-90; 70,-30; 100,-50" dur="20s" repeatCount="indefinite" additive="sum" />
      <animateTransform attributeName="transform" type="rotate" values="0 200 200; 3 200 200; -2 200 200; 2 200 200; 0 200 200" dur="20s" repeatCount="indefinite" additive="sum" />
      <animateTransform attributeName="transform" type="scale" values="1.2" additive="sum" />
    </g>
    <g id="anim2">
      <animateTransform attributeName="transform" type="translate" values="-60,130; -110,160; -30,95; -25,150; -60,130" dur="18s" repeatCount="indefinite" additive="sum" />
      <animateTransform attributeName="transform" type="rotate" values="0 200 200; -3 200 200; 4 200 200; -1 200 200; 0 200 200" dur="18s" repeatCount="indefinite" additive="sum" />
      <animateTransform attributeName="transform" type="scale" values="1.1" additive="sum" />
    </g>
    <g id="anim3">
      <animateTransform attributeName="transform" type="translate" values="100,160; 135,200; 70,135; 125,120; 100,160" dur="22s" repeatCount="indefinite" additive="sum" />
      <animateTransform attributeName="transform" type="rotate" values="0 200 200; 2 200 200; -3 200 200; 3 200 200; 0 200 200" dur="22s" repeatCount="indefinite" additive="sum" />
      <animateTransform attributeName="transform" type="scale" values="1.3" additive="sum" />
    </g>
  </defs>
  <path fill="#aaee33" opacity="0.7" d="m 71.803393,243.38924 c -4.093254,-51.92238 4.886216,-104.16421 46.792457,-122.58651 41.90624,-18.42229 96.97199,-8.73324 106.17884,35.7131 9.20686,44.44635 3.55427,107.96542 -43.4855,115.2456 -47.03978,7.28017 -105.392543,23.55019 -109.485797,-28.37219 z">
    <use href="#anim1" />
  </path>
  <path fill="#ff3399" opacity="0.6" d="m 245.61865,44.557419 c 18.46971,53.599454 -5.60966,66.463741 -64.39751,86.556921 -58.78785,20.09318 -58.7535,7.89215 -81.537846,-34.428031 -22.784351,-42.320178 17.377076,-133.580005 66.334166,-134.239782 48.95709,-0.659777 61.13147,28.5114373 79.60119,82.110892 z">
    <use href="#anim2" />
  </path>
  <path fill="#f59e0b" opacity="0.5" d="M 99.938622,36.03857 C 111.61075,94.490964 129.63405,124.87616 78.4856,144.22941 27.337146,163.58266 -11.89953,148.50683 -44.0807,102.82014 -76.261871,57.133454 -51.686924,15.703515 -4.9623727,-19.164222 41.762179,-54.03196 88.266494,-22.413825 99.938622,36.03857 Z">
    <use href="#anim3" />
  </path>
</svg>
