<?xml version="1.0" encoding="UTF-8" standalone="no"?>
<!-- Created with Inkscape (http://www.inkscape.org/) -->

<svg
   width="500"
   height="500"
   viewBox="0 0 500 500.00002"
   version="1.1"
   id="svg1"
   inkscape:version="1.4.2 (ebf0e940d0, 2025-05-08)"
   sodipodi:docname="main.svg"
   xml:space="preserve"
   xmlns:inkscape="http://www.inkscape.org/namespaces/inkscape"
   xmlns:sodipodi="http://sodipodi.sourceforge.net/DTD/sodipodi-0.dtd"
   xmlns="http://www.w3.org/2000/svg"
   xmlns:svg="http://www.w3.org/2000/svg"><sodipodi:namedview
     id="namedview1"
     pagecolor="#ffffff"
     bordercolor="#000000"
     borderopacity="0.25"
     inkscape:showpageshadow="2"
     inkscape:pageopacity="0.0"
     inkscape:pagecheckerboard="0"
     inkscape:deskcolor="#d1d1d1"
     inkscape:document-units="px"
     inkscape:zoom="0.66190376"
     inkscape:cx="605.82826"
     inkscape:cy="67.230318"
     inkscape:window-width="2532"
     inkscape:window-height="954"
     inkscape:window-x="1080"
     inkscape:window-y="98"
     inkscape:window-maximized="1"
     inkscape:current-layer="layer1" /><defs
     id="defs1" /><g
     inkscape:label="Layer 1"
     inkscape:groupmode="layer"
     id="layer1"><path
       fill="#ffa3d3"
       d="m 186.53795,15 h 126.9241 c 26.32,0 47.19282,0 63.99231,1.373849 17.20923,1.397947 31.74308,4.338462 45.04769,11.087173 a 114.48718,114.48718 0 0 1 50.01282,50.061032 c 6.77282,13.256408 9.71333,27.814356 11.11128,45.023586 C 485,139.34513 485,160.21795 485,186.53795 v 126.9241 c 0,26.32 0,47.19282 -1.37385,63.99231 -1.39795,17.20923 -4.33846,31.74308 -11.08717,45.04769 a 114.48718,114.48718 0 0 1 -50.03693,50.01282 c -13.30461,6.77282 -27.83846,9.71333 -45.04769,11.11128 C 360.65487,485 339.78205,485 313.46205,485 h -126.9241 c -26.32,0 -47.19282,0 -63.99231,-1.37385 -17.20923,-1.39795 -31.74308,-4.33846 -45.023586,-11.08717 A 114.48718,114.48718 0 0 1 27.485129,422.50205 C 20.712311,409.19744 17.771796,394.66359 16.373849,377.45436 15,360.65487 15,339.78205 15,313.46205 v -126.9241 c 0,-26.32 0,-47.19282 1.373849,-63.99231 1.397947,-17.20923 4.338462,-31.74308 11.087173,-45.023586 A 114.48718,114.48718 0 0 1 77.522054,27.485129 C 90.778462,20.712311 105.33641,17.771796 122.54564,16.373849 139.34513,15 160.21795,15 186.53795,15 m 15.25692,168.71795 a 18.076923,18.076923 0 0 0 -18.07692,18.07692 v 119.30769 a 18.076925,18.076925 0 1 0 36.15385,0 V 219.8718 h 101.23076 a 18.076925,18.076925 0 1 0 0,-36.15385 z"
       id="path1"
       style="stroke-width:24.1026;fill:#ffa3a5;fill-opacity:1" /></g></svg>
